<svg width="34" height="48" viewBox="0 0 34 48" fill="none" xmlns="http://www.w3.org/2000/svg">
<path d="M18 48V46H25V31.983C30.568 29.014 34 23.33 34 17C34 7.626 26.374 0 17 0C7.626 0 0 7.626 0 17C0 23.33 3.432 29.014 9 31.983V46H16V48H18ZM10.438 30.472C5.233 27.932 2 22.77 2 17C2 8.729 8.729 2 17 2C25.271 2 32 8.729 32 17C32 22.77 28.767 27.932 23.562 30.472L23 30.746V39H18V18.414L22.707 13.707L21.293 12.293L17 16.586L12.707 12.293L11.293 13.707L16 18.414V39H11V30.746L10.438 30.472ZM11 41H23V44H11V41Z" fill="#5F8895"/>
</svg>
