<svg width="44" height="45" viewBox="0 0 44 45" fill="none" xmlns="http://www.w3.org/2000/svg">
<path d="M22.1208 0C25.0702 0 27.8603 0.558003 30.4908 1.67401C33.1214 2.75016 35.4332 4.30459 37.426 6.33732C39.4189 8.33018 40.9932 10.7216 42.1491 13.5116C43.305 16.3016 43.8829 19.3906 43.8829 22.7785C43.8829 23.3365 43.843 24.0937 43.7633 25.0503C43.7235 25.967 43.6039 26.9435 43.4046 27.9798C43.2053 29.0161 42.9064 30.0723 42.5078 31.1485C42.1491 32.2246 41.6509 33.2011 41.0132 34.078C40.3755 34.9549 39.5783 35.6524 38.6217 36.1705C37.6652 36.7285 36.5093 37.0075 35.1541 37.0075C34.1577 37.0075 33.3406 36.8481 32.7029 36.5292C32.1051 36.2502 31.6268 35.8517 31.2681 35.3335C30.9093 34.8154 30.6503 34.2374 30.4908 33.5997C30.3314 32.9221 30.2118 32.2246 30.1321 31.5072C29.0161 32.6631 27.5813 33.6595 25.8275 34.4965C24.0738 35.3335 22.1407 35.752 20.0283 35.752C17.1984 35.752 14.9863 35.0146 13.3921 33.5399C11.8376 32.0253 11.0604 30.0923 11.0604 27.7407C11.0604 26.2261 11.3793 24.9507 12.017 23.9144C12.6946 22.8781 13.5515 22.061 14.5878 21.4632C15.6639 20.8254 16.8596 20.387 18.1749 20.1479C19.4902 19.8689 20.8055 19.7294 22.1208 19.7294C23.8745 19.7294 25.409 19.9087 26.7243 20.2674C28.0396 20.5863 29.0361 20.8653 29.7136 21.1044C29.7136 19.6696 29.5941 18.3742 29.3549 17.2184C29.1556 16.0226 28.777 15.0063 28.219 14.1693C27.661 13.3323 26.9037 12.6746 25.9471 12.1963C24.9905 11.718 23.7749 11.4789 22.3002 11.4789C20.7457 11.4789 19.2511 11.738 17.8162 12.2561C16.3814 12.7344 15.086 13.412 13.9301 14.2888L12.854 11.9572C14.2888 11.0006 15.8034 10.2433 17.3977 9.68533C19.0319 9.12733 20.7856 8.84833 22.6589 8.84833C24.851 8.84833 26.5848 9.22697 27.8603 9.98426C29.1756 10.7017 30.172 11.6583 30.8496 12.854C31.5271 14.0098 31.9456 15.3251 32.1051 16.7999C32.3044 18.2347 32.404 19.6696 32.404 21.1044V28.8168C32.404 29.6937 32.4239 30.5108 32.4638 31.2681C32.5435 31.9855 32.683 32.6033 32.8823 33.1214C33.1214 33.6396 33.4403 34.0581 33.8389 34.3769C34.2773 34.6559 34.8353 34.7954 35.5129 34.7954C36.7484 34.7954 37.7648 34.3769 38.5619 33.5399C39.3591 32.6631 39.9968 31.6068 40.4751 30.3713C40.9534 29.1357 41.2722 27.8204 41.4317 26.4254C41.631 24.9905 41.7306 23.735 41.7306 22.6589C41.7306 19.7892 41.2324 17.0988 40.236 14.5878C39.2395 12.0768 37.8445 9.90454 36.0509 8.07111C34.2972 6.19781 32.2246 4.72309 29.8332 3.64694C27.4418 2.5708 24.851 2.03273 22.061 2.03273C19.3507 2.03273 16.7799 2.55087 14.3486 3.58716C11.9572 4.58359 9.84476 5.9786 8.01132 7.77218C6.21774 9.56576 4.78288 11.6981 3.70673 14.1693C2.67044 16.6404 2.15229 19.3507 2.15229 22.3002C2.15229 25.13 2.65051 27.8005 3.64694 30.3115C4.64338 32.7826 5.99852 34.9349 7.71239 36.7684C9.46611 38.6417 11.5387 40.0965 13.9301 41.1327C16.3216 42.2089 18.9322 42.747 21.7621 42.747C23.476 42.747 25.0503 42.5477 26.4852 42.1491C27.9599 41.7505 29.4346 41.1925 30.9093 40.4751L31.6866 42.3883C30.0524 43.1854 28.3983 43.7833 26.7243 44.1818C25.0503 44.5804 23.3763 44.7797 21.7023 44.7797C18.713 44.7797 15.9031 44.2217 13.2725 43.1057C10.6419 41.9897 8.33018 40.4153 6.33731 38.3826C4.3843 36.3897 2.82987 34.0182 1.67401 31.2681C0.558002 28.5179 0 25.5286 0 22.3002C0 18.9123 0.59786 15.8632 1.79358 13.1529C3.02916 10.4028 4.66331 8.05118 6.69603 6.09817C8.76861 4.14516 11.1401 2.65051 13.8106 1.61422C16.481 0.538074 19.2511 0 22.1208 0ZM25.7678 31.8659C27.4418 31.0688 28.498 30.1321 28.9364 29.056C29.4147 27.9798 29.6538 26.8838 29.6538 25.7678V23.3763C29.1357 23.2966 28.199 23.0575 26.8439 22.6589C25.5286 22.2603 23.9144 22.061 22.0012 22.061C20.9649 22.061 19.9486 22.1607 18.9522 22.36C17.9557 22.5194 17.0789 22.8183 16.3216 23.2567C15.5643 23.6952 14.9465 24.2731 14.4682 24.9905C14.0298 25.6681 13.8106 26.545 13.8106 27.6211C13.8106 29.2951 14.4084 30.6503 15.6041 31.6866C16.7999 32.683 18.3344 33.1812 20.2077 33.1812C21.2041 33.1812 22.1806 33.0616 23.1372 32.8225C24.1336 32.5435 25.0105 32.2246 25.7678 31.8659Z" fill="#AB5050"/>
</svg>
