<svg width="405" height="69" viewBox="0 0 405 69" fill="none" xmlns="http://www.w3.org/2000/svg">
<path d="M25.344 2.62399H0.384V0.799995H52.224V2.62399H27.264V68H25.344V2.62399ZM91.7843 68.288C85.3203 68.288 79.4643 66.816 74.2163 63.872C68.9683 60.928 64.8403 56.896 61.8323 51.776C58.8243 46.592 57.3203 40.8 57.3203 34.4C57.3203 28 58.8243 22.24 61.8323 17.12C64.8403 11.936 68.9683 7.872 74.2163 4.928C79.4643 1.984 85.3203 0.511999 91.7843 0.511999C98.2483 0.511999 104.104 1.984 109.352 4.928C114.6 7.872 118.728 11.936 121.736 17.12C124.744 22.24 126.248 28 126.248 34.4C126.248 40.8 124.744 46.592 121.736 51.776C118.728 56.896 114.6 60.928 109.352 63.872C104.104 66.816 98.2483 68.288 91.7843 68.288ZM91.7843 66.464C97.8643 66.464 103.368 65.088 108.296 62.336C113.288 59.52 117.192 55.68 120.008 50.816C122.888 45.888 124.328 40.416 124.328 34.4C124.328 28.384 122.888 22.944 120.008 18.08C117.192 13.152 113.288 9.312 108.296 6.56C103.368 3.744 97.8643 2.336 91.7843 2.336C85.7043 2.336 80.1683 3.744 75.1763 6.56C70.2483 9.312 66.3443 13.152 63.4643 18.08C60.6483 22.944 59.2403 28.384 59.2403 34.4C59.2403 40.416 60.6483 45.888 63.4643 50.816C66.3443 55.68 70.2483 59.52 75.1763 62.336C80.1683 65.088 85.7043 66.464 91.7843 66.464ZM144.674 0.799995H146.594V66.176H186.626V68H144.674V0.799995ZM200.362 0.799995H202.282V68H200.362V0.799995ZM277.485 0.799995L247.245 68H245.325L215.085 0.799995H217.293L246.285 65.408L275.277 0.799995H277.485ZM334.535 66.176V68H289.799V0.799995H333.095V2.62399H291.719V32.96H328.775V34.784H291.719V66.176H334.535ZM401.636 68L384.548 44.288C382.308 44.736 379.684 44.96 376.676 44.96H355.844V68H353.924V0.799995H376.676C384.932 0.799995 391.396 2.752 396.068 6.65599C400.74 10.496 403.076 15.904 403.076 22.88C403.076 28.256 401.636 32.768 398.756 36.416C395.876 40 391.812 42.464 386.564 43.808L404.036 68H401.636ZM376.868 43.136C384.676 43.136 390.66 41.376 394.82 37.856C399.044 34.336 401.156 29.344 401.156 22.88C401.156 16.416 399.044 11.424 394.82 7.904C390.66 4.384 384.676 2.62399 376.868 2.62399H355.844V43.136H376.868Z" fill="#AB5050"/>
</svg>
