<svg width="347" height="69" viewBox="0 0 347 69" fill="none" xmlns="http://www.w3.org/2000/svg">
<path d="M53.568 47.744H12.48L3.072 68H0.864L32.064 0.799995H33.984L65.184 68H62.976L53.568 47.744ZM52.704 45.92L33.024 3.392L13.344 45.92H52.704ZM119.662 47.744H78.5738L69.1658 68H66.9578L98.1578 0.799995H100.078L131.278 68H129.07L119.662 47.744ZM118.798 45.92L99.1178 3.392L79.4378 45.92H118.798ZM192.668 68L175.58 44.288C173.34 44.736 170.716 44.96 167.708 44.96H146.876V68H144.956V0.799995H167.708C175.964 0.799995 182.428 2.752 187.1 6.65599C191.772 10.496 194.108 15.904 194.108 22.88C194.108 28.256 192.668 32.768 189.788 36.416C186.908 40 182.844 42.464 177.596 43.808L195.068 68H192.668ZM167.9 43.136C175.708 43.136 181.692 41.376 185.852 37.856C190.076 34.336 192.188 29.344 192.188 22.88C192.188 16.416 190.076 11.424 185.852 7.904C181.692 4.384 175.708 2.62399 167.9 2.62399H146.876V43.136H167.9ZM241.034 68.288C234.57 68.288 228.714 66.816 223.466 63.872C218.218 60.928 214.09 56.896 211.082 51.776C208.074 46.592 206.57 40.8 206.57 34.4C206.57 28 208.074 22.24 211.082 17.12C214.09 11.936 218.218 7.872 223.466 4.928C228.714 1.984 234.57 0.511999 241.034 0.511999C247.498 0.511999 253.354 1.984 258.602 4.928C263.85 7.872 267.978 11.936 270.986 17.12C273.994 22.24 275.498 28 275.498 34.4C275.498 40.8 273.994 46.592 270.986 51.776C267.978 56.896 263.85 60.928 258.602 63.872C253.354 66.816 247.498 68.288 241.034 68.288ZM241.034 66.464C247.114 66.464 252.618 65.088 257.546 62.336C262.538 59.52 266.442 55.68 269.258 50.816C272.138 45.888 273.578 40.416 273.578 34.4C273.578 28.384 272.138 22.944 269.258 18.08C266.442 13.152 262.538 9.312 257.546 6.56C252.618 3.744 247.114 2.336 241.034 2.336C234.954 2.336 229.418 3.744 224.426 6.56C219.498 9.312 215.594 13.152 212.714 18.08C209.898 22.944 208.49 28.384 208.49 34.4C208.49 40.416 209.898 45.888 212.714 50.816C215.594 55.68 219.498 59.52 224.426 62.336C229.418 65.088 234.954 66.464 241.034 66.464ZM346.724 0.799995V68H345.092L295.844 4.352V68H293.924V0.799995H295.556L344.804 64.448V0.799995H346.724Z" fill="#95826D"/>
</svg>
