<svg style="position: absolute; width: 0; height: 0; overflow: hidden;" version="1.1" xmlns="http://www.w3.org/2000/svg" xmlns:xlink="http://www.w3.org/1999/xlink">
    <defs>

        <symbol id="pro-api" viewBox="0 0 127 58">
            <title>pro-api</title>            
            <path d="M20.304 38.448L28.8 21.528L37.224 38.448H48.024L28.8 0L0 57.6H10.656L15.552 47.952L20.304 38.448ZM52.776 48.024H42.12L46.872 57.6H57.6L52.776 48.024Z" fill="#CCCCCC"/>
            <path d="M103.494 5.616C99.7498 1.872 95.2138 0 89.9578 0H61.1578L70.7338 9.648H89.9578C92.5498 9.648 94.7818 10.584 96.6538 12.456C98.5978 14.328 99.5338 16.632 99.5338 19.224C99.5338 21.888 98.5258 24.12 96.6538 25.992C94.7818 27.864 92.5498 28.8 89.9578 28.8H70.7338H61.1578V57.6H70.7338V38.448H89.9578C95.2138 38.448 99.7498 36.576 103.494 32.832C107.31 29.088 109.11 24.48 109.11 19.224C109.11 13.968 107.238 9.432 103.494 5.616Z" fill="#CCCCCC"/>
            <path d="M126.914 9.504L117.338 0V57.6L126.914 47.952V9.504Z" fill="#CCCCCC"/>
            <path d="M103.494 5.616C99.7502 1.872 95.2142 0 89.9582 0H61.1582L70.7342 9.648H89.9582C92.5502 9.648 94.7822 10.584 96.6542 12.456C98.5982 14.328 99.5342 16.632 99.5342 19.224C99.5342 21.888 98.5262 24.12 96.6542 25.992C94.7822 27.864 92.5502 28.8 89.9582 28.8H70.7342H61.1582V57.6H70.7342V38.448H89.9582C95.2142 38.448 99.7502 36.576 103.494 32.832C107.31 29.088 109.11 24.48 109.11 19.224C109.11 13.968 107.238 9.432 103.494 5.616Z" fill="#8CC2D3"/>
        </symbol>

        <symbol id="pro-pwa" viewBox="0 0 177 58">
            <title>pro-pwa</title>
            <path d="M42.336 5.616C38.592 1.872 34.056 0 28.8 0H0L9.576 9.648H28.8C31.392 9.648 33.624 10.584 35.496 12.456C37.44 14.328 38.376 16.632 38.376 19.224C38.376 21.888 37.368 24.12 35.496 25.992C33.624 27.864 31.392 28.8 28.8 28.8H9.576H0V57.6H9.576V38.448H28.8C34.056 38.448 38.592 36.576 42.336 32.832C46.152 29.088 47.952 24.48 47.952 19.224C47.952 13.968 46.08 9.432 42.336 5.616Z" fill="#8CC2D3"/>
            <path d="M53.478 0H42.75L66.222 46.872L71.622 36.072L53.478 0ZM125.838 0L107.766 36.072L95.022 10.728L89.622 21.528L107.766 57.6L136.566 0H125.838Z" fill="#8CC2D3"/>
            <path d="M139.427 38.448L147.923 21.528L156.347 38.448H167.147L147.923 0L119.123 57.6H129.779L134.675 47.952L139.427 38.448ZM171.899 48.024H161.243L165.995 57.6H176.723L171.899 48.024Z" fill="#8CC2D3"/>
            <path d="M107.766 36.072L125.838 0H136.566L107.766 57.6L89.622 21.528L95.022 10.728L107.766 36.072Z" fill="#8CC2D3"/>
            <path d="M42.75 0H53.478L71.622 36.072L66.222 46.872L42.75 0Z" fill="#BE9F7D"/>
            <path d="M107.766 36.072L125.838 0H136.566L107.766 57.6L89.6221 21.528L95.0221 10.728L107.766 36.072Z" fill="#BE9F7D"/>
        </symbol>
        
        <symbol id="pro-cms" viewBox="0 0 169 58">
            <title>pro-cms</title>
            <path d="M17.712 55.296C21.168 56.808 24.912 57.6 28.872 57.6C32.832 57.6 36.576 56.88 40.032 55.368L28.872 47.952C26.208 47.952 23.76 47.448 21.384 46.512C19.08 45.504 17.064 44.136 15.336 42.336C13.536 40.608 12.168 38.592 11.16 36.288C10.152 33.912 9.648 31.464 9.648 28.8C9.648 26.136 10.152 23.688 11.16 21.312C12.168 19.008 13.536 16.992 15.264 15.264C16.992 13.464 19.008 12.096 21.384 11.088C23.688 10.152 26.208 9.648 28.872 9.648C34.056 9.648 38.592 11.448 42.408 15.192L49.248 8.496C46.584 5.832 43.488 3.744 40.032 2.232C36.576 0.719999 32.832 0 28.872 0C24.912 0 21.168 0.791998 17.712 2.304C14.184 3.816 11.16 5.832 8.496 8.496C5.904 11.088 3.816 14.112 2.304 17.568C0.792 21.096 0 24.84 0 28.8C0 32.688 0.792 36.36 2.304 39.888C3.816 43.416 5.904 46.44 8.496 49.104C11.16 51.696 14.184 53.784 17.712 55.296Z" fill="#D3B18C"/>
            <path d="M51.8203 13.392L80.6923 42.408L99.9883 23.184V57.6H109.492V0L80.6923 28.8L51.8203 0V13.392Z" fill="#D3B18C"/>
            <path d="M151.62 33.624C153.636 33.624 155.292 34.344 156.732 35.784C158.1 37.224 158.892 38.88 158.892 40.824C158.892 41.832 158.676 42.768 158.316 43.632C157.956 44.568 157.452 45.288 156.804 45.936C156.156 46.584 155.364 47.088 154.428 47.448C153.564 47.808 152.628 47.952 151.62 47.952V57.6C156.3 57.6 160.26 55.944 163.5 52.704C166.812 49.392 168.468 45.432 168.468 40.824C168.468 36.216 166.812 32.256 163.5 28.944C160.26 25.704 156.3 24.048 151.62 24.048H137.292C135.204 24.048 133.548 23.328 132.108 21.888C130.74 20.448 130.092 18.792 130.092 16.776C130.092 15.84 130.236 14.904 130.596 14.04C130.956 13.176 131.46 12.384 132.108 11.736C132.828 11.016 133.548 10.512 134.484 10.152C135.348 9.792 136.284 9.648 137.292 9.648V0C132.612 0 128.652 1.656 125.412 4.968C122.172 8.28 120.516 12.168 120.516 16.776C120.516 21.456 122.172 25.416 125.412 28.728C128.652 31.968 132.612 33.624 137.292 33.624H151.62Z" fill="#D3B18C"/>
            <path d="M51.8203 13.392L80.6923 42.408L99.9883 23.184V57.6H109.492V0L80.6923 28.8L51.8203 0V13.392Z" fill="#FF8787"/>
        </symbol>
        
        <symbol id="pro-dev" viewBox="0 0 131 58">
            <title>pro-dev</title>
            <path d="M45.72 17.712C44.136 14.184 42.12 11.16 39.456 8.496C36.864 5.904 33.768 3.816 30.312 2.304C26.784 0.791998 23.112 0 19.152 0H0L9.576 9.648H19.152C21.744 9.648 24.264 10.152 26.568 11.088C28.872 12.096 30.96 13.536 32.688 15.264C34.488 17.064 35.856 19.08 36.864 21.384C37.872 23.76 38.376 26.208 38.376 28.8C38.376 31.392 37.872 33.84 36.864 36.216C35.856 38.52 34.488 40.536 32.76 42.336C31.032 44.136 28.944 45.504 26.64 46.512C24.336 47.448 21.816 47.952 19.152 47.952H9.576L0 57.6H19.152C23.112 57.6 26.856 56.808 30.312 55.296C33.84 53.784 36.936 51.696 39.528 49.104C42.12 46.44 44.136 43.416 45.72 39.888C47.232 36.432 47.952 32.76 47.952 28.8C47.952 24.84 47.232 21.168 45.72 17.712Z" fill="#8CC2D3"/>
            <path d="M50.1328 56.808V57.6H88.5088V47.952H59.7088L50.1328 56.808ZM50.1328 0L59.7088 9.648H88.5088V0H50.1328ZM50.1328 24.048V33.624H59.7088H88.5088V24.048H59.7088H50.1328Z" fill="#8CC2D3"/>
            <path d="M95.9062 0L124.706 57.6L130.106 46.872L106.634 0H95.9062Z" fill="#8CC2D3"/>
            <path d="M50.1328 56.808V57.6H88.5088V47.952H59.7088L50.1328 56.808ZM50.1328 0L59.7088 9.648H88.5088V0H50.1328ZM50.1328 24.048V33.624H59.7088H88.5088V24.048H59.7088H50.1328Z" fill="#FF8787"/>
        </symbol>
        
        <symbol id="pro-des" viewBox="0 0 142 58">
            <title>pro-des</title>
            <path d="M10.728 0H0L23.472 46.872L28.872 36.072L10.728 0ZM83.088 0L65.016 36.072L52.272 10.728L46.872 21.528L65.016 57.6L93.816 0H83.088Z" fill="#CCCCCC"/>
            <path d="M139.306 17.712C137.722 14.184 135.706 11.16 133.042 8.496C130.45 5.904 127.354 3.816 123.898 2.304C120.37 0.791998 116.698 0 112.738 0H93.5859L103.162 9.648H112.738C115.33 9.648 117.85 10.152 120.154 11.088C122.458 12.096 124.546 13.536 126.274 15.264C128.074 17.064 129.442 19.08 130.45 21.384C131.458 23.76 131.962 26.208 131.962 28.8C131.962 31.392 131.458 33.84 130.45 36.216C129.442 38.52 128.074 40.536 126.346 42.336C124.618 44.136 122.53 45.504 120.226 46.512C117.922 47.448 115.402 47.952 112.738 47.952H103.162L93.5859 57.6H112.738C116.698 57.6 120.442 56.808 123.898 55.296C127.426 53.784 130.522 51.696 133.114 49.104C135.706 46.44 137.722 43.416 139.306 39.888C140.818 36.432 141.538 32.76 141.538 28.8C141.538 24.84 140.818 21.168 139.306 17.712Z" fill="#CCCCCC"/>
            <path d="M10.728 0H0L23.472 46.872L28.872 36.072L10.728 0ZM83.088 0L65.016 36.072L52.272 10.728L46.872 21.528L65.016 57.6L93.816 0H83.088Z" fill="#BE9F7D"/>
        </symbol>
        
        <symbol id="icon-blog" viewBox="0 0 34 48">
            <title>icon-blog</title>
            <path d="M18 48V46H25V31.983C30.568 29.014 34 23.33 34 17C34 7.626 26.374 0 17 0C7.626 0 0 7.626 0 17C0 23.33 3.432 29.014 9 31.983V46H16V48H18ZM10.438 30.472C5.233 27.932 2 22.77 2 17C2 8.729 8.729 2 17 2C25.271 2 32 8.729 32 17C32 22.77 28.767 27.932 23.562 30.472L23 30.746V39H18V18.414L22.707 13.707L21.293 12.293L17 16.586L12.707 12.293L11.293 13.707L16 18.414V39H11V30.746L10.438 30.472ZM11 41H23V44H11V41Z" fill="#5F8895"/>
        </symbol>
    
        <symbol id="icon-contact" viewBox="0 0 44 45">
            <title>icon-contact</title>
            <path d="M22.1208 0C25.0702 0 27.8603 0.558003 30.4908 1.67401C33.1214 2.75016 35.4332 4.30459 37.426 6.33732C39.4189 8.33018 40.9932 10.7216 42.1491 13.5116C43.305 16.3016 43.8829 19.3906 43.8829 22.7785C43.8829 23.3365 43.843 24.0937 43.7633 25.0503C43.7235 25.967 43.6039 26.9435 43.4046 27.9798C43.2053 29.0161 42.9064 30.0723 42.5078 31.1485C42.1491 32.2246 41.6509 33.2011 41.0132 34.078C40.3755 34.9549 39.5783 35.6524 38.6217 36.1705C37.6652 36.7285 36.5093 37.0075 35.1541 37.0075C34.1577 37.0075 33.3406 36.8481 32.7029 36.5292C32.1051 36.2502 31.6268 35.8517 31.2681 35.3335C30.9093 34.8154 30.6503 34.2374 30.4908 33.5997C30.3314 32.9221 30.2118 32.2246 30.1321 31.5072C29.0161 32.6631 27.5813 33.6595 25.8275 34.4965C24.0738 35.3335 22.1407 35.752 20.0283 35.752C17.1984 35.752 14.9863 35.0146 13.3921 33.5399C11.8376 32.0253 11.0604 30.0923 11.0604 27.7407C11.0604 26.2261 11.3793 24.9507 12.017 23.9144C12.6946 22.8781 13.5515 22.061 14.5878 21.4632C15.6639 20.8254 16.8596 20.387 18.1749 20.1479C19.4902 19.8689 20.8055 19.7294 22.1208 19.7294C23.8745 19.7294 25.409 19.9087 26.7243 20.2674C28.0396 20.5863 29.0361 20.8653 29.7136 21.1044C29.7136 19.6696 29.5941 18.3742 29.3549 17.2184C29.1556 16.0226 28.777 15.0063 28.219 14.1693C27.661 13.3323 26.9037 12.6746 25.9471 12.1963C24.9905 11.718 23.7749 11.4789 22.3002 11.4789C20.7457 11.4789 19.2511 11.738 17.8162 12.2561C16.3814 12.7344 15.086 13.412 13.9301 14.2888L12.854 11.9572C14.2888 11.0006 15.8034 10.2433 17.3977 9.68533C19.0319 9.12733 20.7856 8.84833 22.6589 8.84833C24.851 8.84833 26.5848 9.22697 27.8603 9.98426C29.1756 10.7017 30.172 11.6583 30.8496 12.854C31.5271 14.0098 31.9456 15.3251 32.1051 16.7999C32.3044 18.2347 32.404 19.6696 32.404 21.1044V28.8168C32.404 29.6937 32.4239 30.5108 32.4638 31.2681C32.5435 31.9855 32.683 32.6033 32.8823 33.1214C33.1214 33.6396 33.4403 34.0581 33.8389 34.3769C34.2773 34.6559 34.8353 34.7954 35.5129 34.7954C36.7484 34.7954 37.7648 34.3769 38.5619 33.5399C39.3591 32.6631 39.9968 31.6068 40.4751 30.3713C40.9534 29.1357 41.2722 27.8204 41.4317 26.4254C41.631 24.9905 41.7306 23.735 41.7306 22.6589C41.7306 19.7892 41.2324 17.0988 40.236 14.5878C39.2395 12.0768 37.8445 9.90454 36.0509 8.07111C34.2972 6.19781 32.2246 4.72309 29.8332 3.64694C27.4418 2.5708 24.851 2.03273 22.061 2.03273C19.3507 2.03273 16.7799 2.55087 14.3486 3.58716C11.9572 4.58359 9.84476 5.9786 8.01132 7.77218C6.21774 9.56576 4.78288 11.6981 3.70673 14.1693C2.67044 16.6404 2.15229 19.3507 2.15229 22.3002C2.15229 25.13 2.65051 27.8005 3.64694 30.3115C4.64338 32.7826 5.99852 34.9349 7.71239 36.7684C9.46611 38.6417 11.5387 40.0965 13.9301 41.1327C16.3216 42.2089 18.9322 42.747 21.7621 42.747C23.476 42.747 25.0503 42.5477 26.4852 42.1491C27.9599 41.7505 29.4346 41.1925 30.9093 40.4751L31.6866 42.3883C30.0524 43.1854 28.3983 43.7833 26.7243 44.1818C25.0503 44.5804 23.3763 44.7797 21.7023 44.7797C18.713 44.7797 15.9031 44.2217 13.2725 43.1057C10.6419 41.9897 8.33018 40.4153 6.33731 38.3826C4.3843 36.3897 2.82987 34.0182 1.67401 31.2681C0.558002 28.5179 0 25.5286 0 22.3002C0 18.9123 0.59786 15.8632 1.79358 13.1529C3.02916 10.4028 4.66331 8.05118 6.69603 6.09817C8.76861 4.14516 11.1401 2.65051 13.8106 1.61422C16.481 0.538074 19.2511 0 22.1208 0ZM25.7678 31.8659C27.4418 31.0688 28.498 30.1321 28.9364 29.056C29.4147 27.9798 29.6538 26.8838 29.6538 25.7678V23.3763C29.1357 23.2966 28.199 23.0575 26.8439 22.6589C25.5286 22.2603 23.9144 22.061 22.0012 22.061C20.9649 22.061 19.9486 22.1607 18.9522 22.36C17.9557 22.5194 17.0789 22.8183 16.3216 23.2567C15.5643 23.6952 14.9465 24.2731 14.4682 24.9905C14.0298 25.6681 13.8106 26.545 13.8106 27.6211C13.8106 29.2951 14.4084 30.6503 15.6041 31.6866C16.7999 32.683 18.3344 33.1812 20.2077 33.1812C21.2041 33.1812 22.1806 33.0616 23.1372 32.8225C24.1336 32.5435 25.0105 32.2246 25.7678 31.8659Z" fill="#AB5050"/>
        </symbol>

        <symbol id="icon-home" viewBox="0 0 48 48">
            <title>icon-home</title>
            <path d="M31.707 2.414V8L23.707 0L0 23.707L1.414 25.121L2.707 23.828V47.414H44.707V23.828L46 25.121L47.414 23.707L40.707 17V2.414H31.707ZM33.707 4.414H38.707V15L33.707 10V4.414ZM18.707 45.414V29.414H28.707V45.414H18.707ZM42.707 45.414H30.707V27.414H16.707V45.414H4.707V21.828L23.707 2.828L42.707 21.828V45.414Z" fill="#BE9F7D"/>
        </symbol>

        <symbol id="icon-login" viewBox="0 0 48 48">
            <title>icon-login</title>
            <path d="M0 0V48H48V0H0ZM32 46H2V2H32V46ZM46 2V46H34V2H46Z" fill="#5F8895"/>
            <path d="M20.293 28.293L21.707 29.707L27.414 24L21.707 18.293L20.293 19.707L23.586 23H6V25H23.586L20.293 28.293Z" fill="#5F8895"/>
        </symbol>

        <symbol id="icon-scroll" viewBox="0 0 58 119">
            <title>icon-scroll</title>
            <path d="M21.248 78.024L28.8 93.064L36.288 78.024H45.888L28.8 112.2L3.2 61H12.672L17.024 69.576L21.248 78.024ZM50.112 69.512H40.64L44.864 61H54.4L50.112 69.512Z" fill="#BE9F7D"/>
            <path d="M37.5118 61.752L28.9998 78.5V19L37.5118 27.576V61.752Z" fill="#BE9F7D"/>
            <path d="M20.4878 61.752L28.9998 78.5V19L20.4878 27.576V61.752Z" fill="#BE9F7D"/>
        </symbol>

        <symbol id="icon-central" viewBox="0 0 71 71">
            <title>icon-central</title>
            <path d="M1.10938 0H70.1372L62.7413 11.6788H8.50521L1.10938 0Z" fill="#AB5050"/>
            <path d="M25.0275 47.4555L35.5 26.655L45.8838 47.4555H59.1963L35.5 0.189575L0 71H13.135L19.17 59.1393L25.0275 47.4555ZM65.0537 59.2278H51.9188L57.7762 71H71L65.0537 59.2278Z" fill="#BE9F7D"/>
            <path d="M51.9188 59.2278H65.0537L71 71H57.7762L51.9188 59.2278Z" fill="#BE9F7D"/>
            <path d="M51.9189 59.2278H65.0539L71.0002 71H57.7764L51.9189 59.2278Z" fill="#77A7B6"/>
        </symbol>

        <symbol id="side-down" viewBox="0 0 33 59">
            <title>side-down</title>
            <path d="M12.2129 37.5863L16.9091 46.939L21.5655 37.5863H27.5352L16.9091 58.8387L0.989746 27H6.8799L9.58618 32.333L12.2129 37.5863ZM30.1619 32.2932H24.2718L26.8985 27H32.8284L30.1619 32.2932Z" fill="#AB5050"/>
            <path d="M22.3265 27.4004L17.0333 37.8151V0.815125L22.3265 6.1481V27.4004Z" fill="#AB5050"/>
            <path d="M11.7401 27.4004L17.0333 37.8151V0.815125L11.7401 6.1481V27.4004Z" fill="#AB5050"/>
        </symbol>

        <symbol id="side-up" viewBox="0 0 33 59">
            <title>side-up</title>
            <path d="M12.2129 21.4137L16.9091 12.061L21.5655 21.4137H27.5352L16.9091 0.161346L0.989746 32H6.8799L9.58618 26.667L12.2129 21.4137ZM30.1619 26.7068H24.2718L26.8985 32H32.8284L30.1619 26.7068Z" fill="#AB5050"/>
            <path d="M22.3265 31.5996L17.0333 21.1849V58.1849L22.3265 52.8519V31.5996Z" fill="#AB5050"/>
            <path d="M11.7401 31.5996L17.0333 21.1849V58.1849L11.7401 52.8519V31.5996Z" fill="#AB5050"/>
        </symbol>

        <symbol id="side-node" viewBox="0 0 29 10">
            <title>side-node</title>
            <path d="M24.048 9.576L28.8 4.788L0 4.788L4.824 9.576L24.048 9.576Z" fill="#AB5050"/>
            <path d="M24.048 8.40308e-07L28.8 4.788L0 4.788L4.824 0L24.048 8.40308e-07Z" fill="#AB5050"/>
        </symbol>

    </defs>
</svg>